<svg width="56" height="50" viewBox="0 0 56 50" fill="none" xmlns="http://www.w3.org/2000/svg">
<path d="M47.0936 25.0472C47.0937 21.0674 45.8471 17.1875 43.529 13.9526C41.2109 10.7176 37.9377 8.29003 34.1691 7.01079C30.4006 5.73154 26.3259 5.66491 22.5175 6.82024C18.7091 7.97557 15.3583 10.2948 12.9356 13.4523C10.513 16.6097 9.14024 20.4467 9.01018 24.4243C8.88012 28.402 9.99928 32.3205 12.2105 35.6294C14.4217 38.9384 17.6139 41.4716 21.3387 42.8732C25.0634 44.2749 29.1337 44.4746 32.9778 43.4443" stroke="#888179" stroke-width="4.23262" stroke-linecap="round"/>
<path d="M28.0473 33.5124C32.7225 33.5124 36.5125 29.7224 36.5125 25.0472C36.5125 20.3719 32.7225 16.5819 28.0473 16.5819C23.3721 16.5819 19.582 20.3719 19.582 25.0472C19.582 29.7224 23.3721 33.5124 28.0473 33.5124Z" stroke="#888179" stroke-width="4.23262"/>
<path d="M36.5117 18.6982V28.2216C36.5117 29.6248 37.0691 30.9706 38.0614 31.9628C39.0536 32.955 40.3993 33.5124 41.8025 33.5124C43.2057 33.5124 44.5514 32.955 45.5436 31.9628C46.5359 30.9706 47.0933 29.6248 47.0933 28.2216V25.0472" stroke="#888179" stroke-width="4.23262" stroke-linecap="round"/>
</svg>
